<svg id="Layer_1" enable-background="new 0 0 500.009 500.009" height="512" viewBox="0 0 500.009 500.009" width="512" xmlns="http://www.w3.org/2000/svg"><path d="m475.585 172.044c9.37 9.37 9.37 24.57 0 33.94l-35.28 35.28c-9.37 9.37-24.57 9.37-33.94 0l-46.58-46.58-165.1 165.1 46.58 46.58c9.37 9.37 9.37 24.57 0 33.94l-35.28 35.28c-9.37 9.37-24.57 9.37-33.94 0l-27.29-27.29-28.7 28.7c-9.37 9.38-24.57 9.38-33.94 0l-59.1-59.1c-9.38-9.37-9.38-24.57 0-33.94l28.7-28.7-27.29-27.29c-9.37-9.37-9.37-24.57 0-33.94l35.28-35.28c9.37-9.37 24.57-9.37 33.94 0l46.58 46.58 165.1-165.1-46.58-46.58c-9.37-9.37-9.37-24.57 0-33.94l35.28-35.28c9.37-9.37 24.57-9.37 33.94 0l27.29 27.29 28.7-28.7c9.37-9.38 24.57-9.38 33.94 0l59.1 59.1c9.38 9.37 9.38 24.57 0 33.94l-28.7 28.7z" fill="#d1e7ff"/><path d="m258.745 93.644c-9.37-9.37-9.37-24.57 0-33.94l35.28-35.28c9.37-9.37 24.57-9.37 33.94 0l27.29 27.29 28.7-28.7c9.37-9.38 24.57-9.38 33.94 0l59.1 59.1c9.38 9.37 9.38 24.57 0 33.94l-28.7 28.7 27.29 27.29c9.37 9.37 9.37 24.57 0 33.94l-35.28 35.28c-9.37 9.37-24.57 9.37-33.94 0l-46.58-46.58-32.479 32.479-127.379 18.459 105.398-105.398z" fill="#e8f3ff"/><path d="m476.995 82.114c9.38 9.37 9.38 24.57 0 33.94l-28.7 28.7-93.04-93.04 28.7-28.7c9.37-9.38 24.57-9.38 33.94 0z" fill="#a2d0ff"/><g fill="#b9dcff"><path d="m475.585 172.044c9.37 9.37 9.37 24.57 0 33.94l-35.28 35.28c-9.37 9.37-24.57 9.37-33.94 0-7.328-7.328-140.402-140.402-147.62-147.62-9.37-9.37-9.37-24.57 0-33.94l35.28-35.28c9.37-9.37 24.57-9.37 33.94 0 2.85 2.85 144.215 144.216 147.62 147.62z"/><path d="m241.265 406.364c9.37 9.37 9.37 24.57 0 33.94l-35.28 35.28c-9.37 9.37-24.57 9.37-33.94 0-2.85-2.85-144.216-144.216-147.62-147.62-9.37-9.37-9.37-24.57 0-33.94l35.28-35.28c9.37-9.37 24.57-9.37 33.94 0 3.293 3.294 140.793 140.793 147.62 147.62z"/><path d="m144.755 448.294-28.7 28.7c-9.37 9.38-24.57 9.38-33.94 0l-59.1-59.1c-9.38-9.37-9.38-24.57 0-33.94l28.7-28.7z"/></g><g fill="#d1e7ff"><path d="m443.335 238.234-3.03 3.03c-9.37 9.37-24.57 9.37-33.94 0-5.037-5.037-142.601-142.601-147.62-147.62-9.37-9.37-9.37-24.57 0-33.94l35.28-35.28c9.37-9.37 24.57-9.37 33.94 0l3.03 3.03-32.25 32.25c-9.37 9.37-9.37 24.57 0 33.94 7.198 7.198 137.399 137.399 144.59 144.59z"/><path d="m109.085 481.844c-8.85 4.07-19.68 2.45-26.97-4.85l-59.1-59.1c-9.38-9.37-9.38-24.57 0-33.94l28.7-28.7 10 10-18.7 18.7c-9.38 9.37-9.38 24.57 0 33.94 64.358 64.359 60.711 61.515 66.07 63.95z"/><path d="m204.015 477.354c-9.42 7.56-23.23 6.97-31.97-1.77l-147.62-147.62c-9.37-9.37-9.37-24.57 0-33.94l35.28-35.28c8.74-8.74 22.55-9.33 31.97-1.771-1.481 1.199 1.223-1.422-37.25 37.05-9.37 9.37-9.37 24.57 0 33.94 158.177 158.178 148.03 148.129 149.59 149.391z"/></g><path d="m470.924 144.759 17.388-17.388c15.596-15.595 15.596-40.972 0-56.568l-59.105-59.106c-15.598-15.594-40.973-15.595-56.568.001l-17.388 17.388-15.971-15.972c-15.596-15.594-40.973-15.595-56.568.001l-35.276 35.276c-15.632 15.63-15.635 40.936 0 56.569l35.26 35.26-142.476 142.475-35.26-35.26c-15.628-15.63-40.936-15.636-56.568 0l-35.278 35.276c-15.594 15.596-15.594 40.973.001 56.569l15.97 15.97-17.388 17.388c-15.596 15.595-15.596 40.972 0 56.568l59.105 59.106c15.6 15.596 40.973 15.595 56.568-.001l17.388-17.388 15.971 15.971c15.595 15.593 40.972 15.594 56.568 0l35.276-35.277c15.632-15.63 15.635-40.936 0-56.569l-35.26-35.26 142.475-142.475 35.26 35.26c15.628 15.63 40.936 15.636 56.568 0l35.277-35.276c15.594-15.596 15.595-40.973 0-56.568zm-75.659-110.436c3.119-3.119 8.195-3.119 11.314 0l59.104 59.105c3.119 3.119 3.12 8.195.001 11.314l-17.388 17.388-70.419-70.42zm-290.521 431.362c-3.119 3.119-8.195 3.119-11.314 0l-59.104-59.105c-3.119-3.119-3.12-8.195-.001-11.314l17.388-17.388 70.419 70.42zm125.203-36.695-35.276 35.276c-3.119 3.119-8.195 3.118-11.314.001-32.028-32.027-115.041-115.041-147.614-147.614-3.119-3.119-3.119-8.195-.001-11.314 38.291-38.289 36.427-37.619 40.935-37.619 5.011 0-5.823-9.138 153.271 149.956 3.119 3.119 3.126 8.187-.001 11.314zm-35.26-91.829-31.84-31.84 142.475-142.475 31.84 31.84zm269.58-142.491c-38.291 38.289-36.427 37.619-40.935 37.619-4.566 0-2.109 1.205-52.23-48.916-108.859-108.859-103.383-101.962-103.383-106.697 0-4.466-.798-2.516 37.619-40.934 1.56-1.56 3.608-2.34 5.657-2.34 4.681 0-8.319-11.636 153.271 149.953 3.119 3.12 3.119 8.196.001 11.315z" fill="#2e58ff"/></svg>